<svg xmlns="http://www.w3.org/2000/svg" width="10" height="10" viewBox="0 0 10 10">
    <path fill="#656565" fill-rule="evenodd" d="M5 0C2.244 0 0 2.244 0 5s2.244 5 5 5 5-2.244 5-5-2.244-5-5-5zm.285 1.667c.466 0 .826.37.826.833a.83.83 0 0 1-.826.833.844.844 0 0 1-.84-.846c0-.45.386-.82.84-.82zm.818 5.944a.476.476 0 0 1-.118.209c-.3.32-.652.513-1.083.513-.196 0-.405 0-.6-.027-.327-.056-.744-.486-.68-.945.04-.32.092-.625.131-.944.092-.542.183-1.084.261-1.625 0-.028.014-.07.014-.097 0-.223-.066-.306-.275-.334-.09-.014-.182-.027-.274-.055-.105-.042-.157-.125-.144-.222.013-.097.065-.153.183-.181.065-.014.13-.014.182-.014h1.554c.196 0 .3.097.313.305 0 .167-.026.333-.052.5-.105.626-.21 1.236-.313 1.861-.04.209-.079.417-.091.611a.808.808 0 0 0 .026.306c.026.125.117.194.247.18.105-.014.21-.055.3-.097.08-.027.157-.097.236-.124.117-.042.222.041.183.18z"/>
</svg>
