<svg xmlns="http://www.w3.org/2000/svg" id="Searching_applicable_rebates_and_incentives" width="24" height="24" viewBox="0 0 24 24">
    <defs>
        <style>
            .cls-2{fill:#ffffff}
        </style>
    </defs>
    <path id="Rectangle_376" fill="none" d="M0 0H24V24H0z"/>
    <g id="Group_685">
        <g id="Path_66">
            <path id="Path_726" d="M8.86 23.34a1.4 1.4 0 0 1-1-.4l-6.69-6.69a1.425 1.425 0 0 1 0-2l8.76-8.77a1.39 1.39 0 0 1 1.14-.42l6.17.6A1.44 1.44 0 0 1 18.53 7l.47 6a1.43 1.43 0 0 1-.42 1.14l-8.72 8.79a1.43 1.43 0 0 1-1 .41zm.47-.94zm-7-7.16l6.58 6.58 8.7-8.71-.53-6-6.1-.54z" class="cls-2"/>
        </g>
        <g id="Path_67">
            <path id="Path_727" d="M17.06 10.58a5 5 0 0 1-2.61-.74.74.74 0 0 1-.25-1 .75.75 0 0 1 1-.25 3.49 3.49 0 0 0 3.66 0 6 6 0 0 0 2.69-3.49 2.62 2.62 0 0 0-.27-2 2.12 2.12 0 0 0-2.05-.8c-1.51.13-3.54 1.27-4.71 4.11a.753.753 0 1 1-1.39-.58c1.43-3.46 4-4.86 6-5a3.56 3.56 0 0 1 3.45 1.5A4.16 4.16 0 0 1 23 5.44a7.52 7.52 0 0 1-3.34 4.4 5 5 0 0 1-2.6.74z" class="cls-2"/>
        </g>
        <g id="Group_684">
            <g id="Line_30">
                <path id="Path_728" d="M10.25 18a.75.75 0 0 1-.75-.75v-6.76a.75.75 0 0 1 1.5 0v6.75a.76.76 0 0 1-.75.76z" class="cls-2"/>
            </g>
            <g id="Group_683">
                <g id="Ellipse_3">
                    <path id="Path_729" d="M12.73 14.66a1.84 1.84 0 1 1 1.84-1.84 1.84 1.84 0 0 1-1.84 1.84zm0-2.18a.34.34 0 1 0 .34.34.34.34 0 0 0-.34-.34z" class="cls-2"/>
                </g>
                <g id="Ellipse_4">
                    <path id="Path_730" d="M7.76 16.75a1.85 1.85 0 1 1 1.85-1.84 1.85 1.85 0 0 1-1.85 1.84zm0-2.19a.35.35 0 1 0 .352.153.35.35 0 0 0-.352-.153z" class="cls-2"/>
                </g>
            </g>
        </g>
    </g>
</svg>
