<?xml version="1.0" encoding="UTF-8"?>
<svg width="36px" height="36px" viewBox="0 0 36 36" version="1.1" xmlns="http://www.w3.org/2000/svg" xmlns:xlink="http://www.w3.org/1999/xlink">
    <!-- Generator: Sketch 44 (41411) - http://www.bohemiancoding.com/sketch -->
    <title>ic_bot_dp</title>
    <desc>Created with Sketch.</desc>
    <defs>
        <rect id="path-1" x="0" y="0" width="36" height="36"></rect>
    </defs>
    <g id="Assets" stroke="none" stroke-width="1" fill="none" fill-rule="evenodd">
        <g transform="translate(-578.000000, -348.000000)" id="Robot_2">
            <g transform="translate(578.000000, 348.000000)">
                <g>
                    <mask id="mask-2" fill="white">
                        <use xlink:href="#path-1"></use>
                    </mask>
                    <use id="Mask" fill="#50E3C2" xlink:href="#path-1"></use>
                    <g mask="url(#mask-2)" id="Robot">
                        <g transform="translate(-4.000000, 7.000000)">
                            <g>
                                <g id="Page-1">
                                    <polygon id="Fill-2" fill="#E8F3FF" points="11.7785889 15.8973333 8.40225556 16.8283137 6.0417 19.236549 5.09086667 23.8369412 5.22075556 28.8298824 6.81131111 28.4196863 8.73553333 28.8298824 8.4672 23.8369412 9.12247778 20.5859608 11.7785889 18.5208627"></polygon>
                                    <polygon id="Fill-3" fill="#E8F3FF" points="32.0936778 15.8973333 35.4696222 16.8283137 37.8305667 19.236549 38.7814 23.8369412 38.6515111 28.8298824 37.0609556 28.4196863 35.1367333 28.8298824 35.4050667 23.8369412 34.7497889 20.5859608 32.0936778 18.5208627"></polygon>
                                    <g id="Group-112">
                                        <path d="M5.15581111,23.3601569 C4.72647778,23.3601569 4.37803333,23.0087843 4.37803333,22.5758431 C4.37803333,18.4609412 7.69797778,15.113098 11.7785889,15.113098 C12.2083111,15.113098 12.5563667,15.4640784 12.5563667,15.8974118 C12.5563667,16.3303529 12.2083111,16.6817255 11.7785889,16.6817255 C8.55547778,16.6817255 5.93358889,19.3256471 5.93358889,22.5758431 C5.93358889,23.0087843 5.58514444,23.3601569 5.15581111,23.3601569" id="Fill-4" fill="#2D3666"></path>
                                        <path d="M8.46708333,23.3601569 C8.03775,23.3601569 7.68930556,23.0087843 7.68930556,22.5758431 C7.68930556,20.3021176 9.52408333,18.4523137 11.7788611,18.4523137 C12.2081944,18.4523137 12.5566389,18.8032941 12.5566389,19.2366275 C12.5566389,19.6695686 12.2081944,20.0209412 11.7788611,20.0209412 C10.3815833,20.0209412 9.24486111,21.1668235 9.24486111,22.5758431 C9.24486111,23.0087843 8.89641667,23.3601569 8.46708333,23.3601569" id="Fill-6" fill="#2D3666"></path>
                                        <path d="M5.15581111,29.2038039 C4.72647778,29.2038039 4.37803333,28.8524314 4.37803333,28.4194902 L4.37803333,22.5759608 C4.37803333,22.1426275 4.72647778,21.7916471 5.15581111,21.7916471 C5.58514444,21.7916471 5.93358889,22.1426275 5.93358889,22.5759608 L5.93358889,28.4194902 C5.93358889,28.8524314 5.58514444,29.2038039 5.15581111,29.2038039" id="Fill-8" fill="#2D3666"></path>
                                        <path d="M8.46708333,29.2038039 C8.03775,29.2038039 7.68930556,28.8524314 7.68930556,28.4194902 L7.68930556,22.5759608 C7.68930556,22.1426275 8.03775,21.7916471 8.46708333,21.7916471 C8.89641667,21.7916471 9.24486111,22.1426275 9.24486111,22.5759608 L9.24486111,28.4194902 C9.24486111,28.8524314 8.89641667,29.2038039 8.46708333,29.2038039" id="Fill-10" fill="#2D3666"></path>
                                        <path d="M10.1228944,32.5432941 C9.69356111,32.5432941 9.34511667,32.1919216 9.34511667,31.7589804 C9.34511667,30.3499608 8.20839444,29.2036863 6.81150556,29.2036863 C5.41461667,29.2036863 4.27789444,30.3499608 4.27789444,31.7589804 C4.27789444,32.1919216 3.92945,32.5432941 3.50011667,32.5432941 C3.07039444,32.5432941 2.72233889,32.1919216 2.72233889,31.7589804 C2.72233889,29.4852549 4.55672778,27.6350588 6.81150556,27.6350588 C9.06628333,27.6350588 10.9006722,29.4852549 10.9006722,31.7589804 C10.9006722,32.1919216 10.5522278,32.5432941 10.1228944,32.5432941" id="Fill-12" fill="#2D3666"></path>
                                        <path d="M8.46708333,26.5031373 L5.15569444,26.5031373 C4.78002778,26.5031373 4.47513889,26.1960784 4.47513889,25.8168627 C4.47513889,25.4376471 4.78002778,25.1305882 5.15569444,25.1305882 L8.46708333,25.1305882 C8.84313889,25.1305882 9.14763889,25.4376471 9.14763889,25.8168627 C9.14763889,26.1960784 8.84313889,26.5031373 8.46708333,26.5031373" id="Fill-14" fill="#2D3666"></path>
                                        <path d="M8.40248889,23.8621961 L5.0911,23.8621961 C4.71543333,23.8621961 4.41054444,23.5551373 4.41054444,23.1759216 C4.41054444,22.7967059 4.71543333,22.4896471 5.0911,22.4896471 L8.40248889,22.4896471 C8.77854444,22.4896471 9.08304444,22.7967059 9.08304444,23.1759216 C9.08304444,23.5551373 8.77854444,23.8621961 8.40248889,23.8621961" id="Fill-16" fill="#2D3666"></path>
                                        <path d="M8.73518333,21.9443137 C8.64223889,21.9443137 8.54735,21.925098 8.45673889,21.8843137 L5.48912778,20.5396078 C5.14612778,20.3843137 4.99329444,19.9784314 5.14690556,19.632549 C5.30129444,19.287451 5.70379444,19.1317647 6.04679444,19.2878431 L9.01440556,20.6321569 C9.35740556,20.787451 9.51023889,21.1933333 9.35662778,21.5392157 C9.24307222,21.7937255 8.99496111,21.9443137 8.73518333,21.9443137" id="Fill-18" fill="#2D3666"></path>
                                        <path d="M9.91133889,20.5336471 C9.70911667,20.5336471 9.50922778,20.4430588 9.37467222,20.2701176 L7.31822778,17.6167843 C7.08683889,17.3183529 7.13933889,16.8869804 7.43528333,16.6532549 C7.73161667,16.4203137 8.15861667,16.4732549 8.39078333,16.7716863 L10.4472278,19.4246275 C10.6786167,19.723451 10.6261167,20.1548235 10.3301722,20.3881569 C10.2057278,20.4861961 10.05795,20.5336471 9.91133889,20.5336471" id="Fill-20" fill="#2D3666"></path>
                                        <path d="M38.3997444,23.3601569 C37.9704111,23.3601569 37.6219667,23.0087843 37.6219667,22.5758431 C37.6219667,19.3256471 35.0000778,16.6817255 31.7769667,16.6817255 C31.3472444,16.6817255 30.9991889,16.3303529 30.9991889,15.8974118 C30.9991889,15.4640784 31.3472444,15.113098 31.7769667,15.113098 C35.8575778,15.113098 39.1775222,18.4609412 39.1775222,22.5758431 C39.1775222,23.0087843 38.8290778,23.3601569 38.3997444,23.3601569" id="Fill-22" fill="#2D3666"></path>
                                        <path d="M35.0884722,23.3601569 C34.6591389,23.3601569 34.3106944,23.0087843 34.3106944,22.5758431 C34.3106944,21.1668235 33.1739722,20.0209412 31.7766944,20.0209412 C31.3473611,20.0209412 30.9989167,19.6695686 30.9989167,19.2366275 C30.9989167,18.8032941 31.3473611,18.4523137 31.7766944,18.4523137 C34.0314722,18.4523137 35.86625,20.3021176 35.86625,22.5758431 C35.86625,23.0087843 35.5178056,23.3601569 35.0884722,23.3601569" id="Fill-24" fill="#2D3666"></path>
                                        <path d="M38.3997444,29.2038039 C37.9704111,29.2038039 37.6219667,28.8524314 37.6219667,28.4194902 L37.6219667,22.5759608 C37.6219667,22.1426275 37.9704111,21.7916471 38.3997444,21.7916471 C38.8290778,21.7916471 39.1775222,22.1426275 39.1775222,22.5759608 L39.1775222,28.4194902 C39.1775222,28.8524314 38.8290778,29.2038039 38.3997444,29.2038039" id="Fill-26" fill="#2D3666"></path>
                                        <path d="M35.0884722,29.2038039 C34.6591389,29.2038039 34.3106944,28.8524314 34.3106944,28.4194902 L34.3106944,22.5759608 C34.3106944,22.1426275 34.6591389,21.7916471 35.0884722,21.7916471 C35.5178056,21.7916471 35.86625,22.1426275 35.86625,22.5759608 L35.86625,28.4194902 C35.86625,28.8524314 35.5178056,29.2038039 35.0884722,29.2038039" id="Fill-28" fill="#2D3666"></path>
                                        <path d="M40.0555556,32.5432941 C39.6262222,32.5432941 39.2777778,32.1919216 39.2777778,31.7589804 C39.2777778,30.3499608 38.1410556,29.2036863 36.7437778,29.2036863 C35.3472778,29.2036863 34.2105556,30.3499608 34.2105556,31.7589804 C34.2105556,32.1919216 33.8621111,32.5432941 33.4327778,32.5432941 C33.0030556,32.5432941 32.655,32.1919216 32.655,31.7589804 C32.655,29.4852549 34.4893889,27.6350588 36.7437778,27.6350588 C38.9989444,27.6350588 40.8333333,29.4852549 40.8333333,31.7589804 C40.8333333,32.1919216 40.4848889,32.5432941 40.0555556,32.5432941" id="Fill-30" fill="#2D3666"></path>
                                        <path d="M38.3997444,26.5031373 L35.0883556,26.5031373 C34.7126889,26.5031373 34.4078,26.1960784 34.4078,25.8168627 C34.4078,25.4376471 34.7126889,25.1305882 35.0883556,25.1305882 L38.3997444,25.1305882 C38.7758,25.1305882 39.0803,25.4376471 39.0803,25.8168627 C39.0803,26.1960784 38.7758,26.5031373 38.3997444,26.5031373" id="Fill-32" fill="#2D3666"></path>
                                        <path d="M38.4643,23.8621961 L35.1529111,23.8621961 C34.7772444,23.8621961 34.4723556,23.5551373 34.4723556,23.1759216 C34.4723556,22.7967059 34.7772444,22.4896471 35.1529111,22.4896471 L38.4643,22.4896471 C38.8403556,22.4896471 39.1448556,22.7967059 39.1448556,23.1759216 C39.1448556,23.5551373 38.8403556,23.8621961 38.4643,23.8621961" id="Fill-34" fill="#2D3666"></path>
                                        <path d="M34.8203722,21.9443137 C34.5605944,21.9443137 34.3124833,21.7937255 34.1989278,21.5392157 C34.0453167,21.1933333 34.19815,20.787451 34.54115,20.6321569 L37.5087611,19.2878431 C37.8517611,19.1329412 38.2542611,19.287451 38.40865,19.632549 C38.5622611,19.9784314 38.4094278,20.3843137 38.0664278,20.5396078 L35.0988167,21.8843137 C35.0082056,21.925098 34.9133167,21.9443137 34.8203722,21.9443137" id="Fill-36" fill="#2D3666"></path>
                                        <path d="M33.6442167,20.5336471 C33.4976056,20.5336471 33.3498278,20.4861961 33.2253833,20.3881569 C32.9294389,20.1548235 32.8769389,19.723451 33.1083278,19.4246275 L35.1647722,16.7716863 C35.39655,16.4732549 35.8239389,16.4203137 36.1202722,16.6532549 C36.4162167,16.8869804 36.4687167,17.3183529 36.2373278,17.6167843 L34.1808833,20.2701176 C34.0467167,20.4430588 33.8464389,20.5336471 33.6442167,20.5336471" id="Fill-38" fill="#2D3666"></path>
                                        <path d="M21.7778556,38.7134902 C18.5773,38.7134902 15.9826333,36.0970196 15.9826333,32.8699608 L27.5726889,32.8699608 C27.5726889,36.0970196 24.9784111,38.7134902 21.7778556,38.7134902" id="Fill-40" fill="#FFDCA1"></path>
                                        <path d="M17.4948278,32.8697647 L16.75555,32.8697647 C16.8014389,34.2995686 17.0849389,35.7878039 18.0676611,36.6383922 C18.6412722,37.312902 19.8273833,37.5203529 20.6918833,37.8117255 C20.7023833,37.8113333 20.7128833,37.8109412 20.7233833,37.810549 C19.7729389,36.8783922 19.1833833,35.570549 19.1833833,34.1285882 L18.6436056,33.7948627 C18.6404944,33.7207451 18.6323278,33.6481961 18.6323278,33.572902 L17.4948278,32.8697647" id="Fill-44" fill="#FFC675"></path>
                                        <path d="M27.9423278,33.5487451 L27.5339944,33.5487451 C27.2007167,36.4561961 24.7507167,38.713451 21.77805,38.713451 C21.0807722,38.713451 20.4126611,38.5895294 19.7939389,38.3620784 C20.5841611,38.8103137 21.4976611,39.0667843 22.4702722,39.0667843 C23.98305,39.0667843 25.3511611,38.4479608 26.3401056,37.4507059 C27.3286611,36.453451 27.9423278,35.0738431 27.9423278,33.5487451" id="Fill-46" fill="#FFE0B6"></path>
                                        <path d="M27.53415,33.5487451 L25.78065,33.5487451 C25.5465389,34.5695294 25.0265944,35.4840392 24.3192056,36.2012941 C23.38665,37.1377647 22.1235389,37.7405098 20.7235389,37.8103137 C20.7297611,37.8165882 20.7363722,37.8228627 20.7429833,37.8291373 C20.7258722,37.8232549 20.70915,37.8177647 20.6920389,37.8118824 C20.6115389,37.8154118 20.5310389,37.8173725 20.4497611,37.8173725 C19.8283167,37.8173725 19.2302056,37.7107059 18.6713722,37.5177647 C19.0065944,37.8448235 19.3834278,38.1291373 19.7937056,38.3620784 C20.4128167,38.5895294 21.0809278,38.713451 21.7778167,38.713451 C24.7504833,38.713451 27.2004833,36.4561961 27.53415,33.5487451" id="Fill-48" fill="#FFF2CC"></path>
                                        <path d="M16.8205722,33.6542745 C17.1954611,36.073098 19.2756278,37.9291765 21.7777389,37.9291765 C24.27985,37.9291765 26.3600167,36.073098 26.7349056,33.6542745 L16.8205722,33.6542745 Z M21.7777389,39.4978039 C18.1536833,39.4978039 15.2051278,36.5244706 15.2051278,32.8699608 C15.2051278,32.4370196 15.5531833,32.0856471 15.9829056,32.0856471 L27.5725722,32.0856471 C28.0022944,32.0856471 28.35035,32.4370196 28.35035,32.8699608 C28.35035,36.5244706 25.4017944,39.4978039 21.7777389,39.4978039 L21.7777389,39.4978039 Z" id="Fill-52" fill="#2D3666"></path>
                                        <path d="M29.2285389,10.0536471 L29.2285389,15.0626667 L14.3270944,15.0626667 L14.3270944,10.0536471 C14.3270944,5.90462745 17.6633722,2.54031373 21.7778167,2.54031373 C24.89865,2.54031373 27.57265,4.47717647 28.6778722,7.22345098 C29.0340944,8.096 29.2285389,9.05168627 29.2285389,10.0536471" id="Fill-54" fill="#E8F3FF"></path>
                                        <path d="M27.4817667,5.82109804 C26.3889889,5.18227451 25.1223778,4.81913725 23.7729333,4.81913725 C19.6584889,4.81913725 16.3222111,8.18345098 16.3222111,12.3324706 L16.3222111,14.5701176 L14.3272111,14.5701176 L14.3272111,10.0536471 C14.3272111,5.90462745 17.6634889,2.54031373 21.7779333,2.54031373 C23.0900444,2.54031373 24.3236,2.88266667 25.3953778,3.48776471 C26.2443222,4.1014902 26.9559889,4.8987451 27.4817667,5.82109804" id="Fill-56" fill="#B8DAF2"></path>
                                        <path d="M24.2613778,10.8884706 L19.2941,10.8884706 C18.3798222,10.8884706 17.6386,10.1410196 17.6386,9.21866667 C17.6386,8.29670588 18.3798222,7.5492549 19.2941,7.5492549 L24.2613778,7.5492549 C25.1756556,7.5492549 25.9172667,8.29670588 25.9172667,9.21866667 C25.9172667,10.1410196 25.1756556,10.8884706 24.2613778,10.8884706" id="Fill-58" fill="#78D5DD"></path>
                                        <path d="M19.2940611,8.33352941 C18.8102833,8.33352941 18.4163389,8.73078431 18.4163389,9.21862745 C18.4163389,9.70686275 18.8102833,10.1041176 19.2940611,10.1041176 L24.2613389,10.1041176 C24.7455056,10.1041176 25.1390611,9.70686275 25.1390611,9.21862745 C25.1390611,8.73078431 24.7455056,8.33352941 24.2613389,8.33352941 L19.2940611,8.33352941 Z M24.2613389,11.6727451 L19.2940611,11.6727451 C17.9523944,11.6727451 16.8607833,10.5719608 16.8607833,9.21862745 C16.8607833,7.86568627 17.9523944,6.76490196 19.2940611,6.76490196 L24.2613389,6.76490196 C25.6033944,6.76490196 26.6946167,7.86568627 26.6946167,9.21862745 C26.6946167,10.5719608 25.6033944,11.6727451 24.2613389,11.6727451 L24.2613389,11.6727451 Z" id="Fill-60" fill="#2D3666"></path>
                                        <path d="M32.2211944,17.4334118 L30.78075,28.8369412 C30.4991944,30.9075294 27.4005278,33.4283137 26.4426944,33.4283137 L17.1128611,33.4283137 C17.1128611,33.4283137 13.2924167,31.8883137 13.0108611,29.8177255 L11.3343611,17.4334118 C11.1644167,16.1769412 12.1331389,15.0624314 13.3873056,15.0624314 L30.16825,15.0624314 C31.4224167,15.0624314 32.3911389,16.1769412 32.2211944,17.4334118" id="Fill-62" fill="#E8F3FF"></path>
                                        <path d="M26.7448611,4.99427451 C26.54575,4.99427451 26.3470278,4.91780392 26.1949722,4.76447059 C25.89125,4.45819608 25.89125,3.96172549 26.1949722,3.65545098 L29.50675,0.316235294 C29.8104722,0.00996078431 30.3024167,0.00996078431 30.6065278,0.316235294 C30.91025,0.622509804 30.91025,1.11898039 30.6065278,1.4252549 L27.29475,4.76447059 C27.1426944,4.91780392 26.9439722,4.99427451 26.7448611,4.99427451" id="Fill-64" fill="#2D3666"></path>
                                        <path d="M16.8106944,4.99427451 C16.6115833,4.99427451 16.4128611,4.91780392 16.2608056,4.76447059 L12.9490278,1.4252549 C12.6453056,1.11898039 12.6453056,0.622509804 12.9490278,0.316235294 C13.2531389,0.00996078431 13.7450833,0.00996078431 14.0488056,0.316235294 L17.3605833,3.65545098 C17.6643056,3.96172549 17.6643056,4.45819608 17.3605833,4.76447059 C17.2085278,4.91780392 17.0098056,4.99427451 16.8106944,4.99427451" id="Fill-66" fill="#2D3666"></path>
                                        <path d="M25.5031389,26.7499216 L18.0524167,26.7499216 C16.9094722,26.7499216 15.98275,25.8154118 15.98275,24.6628627 L15.98275,21.3236471 C15.98275,20.171098 16.9094722,19.2365882 18.0524167,19.2365882 L25.5031389,19.2365882 C26.6460833,19.2365882 27.5728056,20.171098 27.5728056,21.3236471 L27.5728056,24.6628627 C27.5728056,25.8154118 26.6460833,26.7499216 25.5031389,26.7499216" id="Fill-68" fill="#78D5DD"></path>
                                        <path d="M18.4661556,24.931451 C18.2919333,24.931451 18.1177111,24.8643922 17.9851,24.7302745 C17.7191,24.4624314 17.7191,24.0279216 17.9851,23.7600784 L20.4685444,21.2553725 C20.7345444,20.9871373 21.1650444,20.9871373 21.4310444,21.2553725 C21.6970444,21.5236078 21.6970444,21.9577255 21.4310444,22.2259608 L18.9472111,24.7302745 C18.8146,24.8643922 18.6403778,24.931451 18.4661556,24.931451" id="Fill-70" fill="#2D3666"></path>
                                        <path d="M23.4339778,24.9318431 C23.2535333,24.9318431 23.0804778,24.8592941 22.9529222,24.7306667 L20.4687,22.2259608 C20.2027,21.9577255 20.2027,21.5236078 20.4687,21.2553725 C20.7347,20.9871373 21.1652,20.9871373 21.4312,21.2553725 L23.4339778,23.2745882 L24.6084222,22.0902745 C24.8732556,21.8220392 25.3049222,21.8220392 25.5705333,22.0902745 C25.8365333,22.3581176 25.8365333,22.7926275 25.5705333,23.0608627 L23.9150333,24.7306667 C23.7874778,24.8592941 23.6148111,24.9318431 23.4339778,24.9318431" id="Fill-72" fill="#2D3666"></path>
                                        <path d="M16.08075,32.589451 C16.1099167,32.8149412 14.28875,31.2902353 14.0651389,29.6416078 L13.2698611,29.3572941 L11.6559722,17.4333725 C11.4860278,16.176902 12.45475,15.0623922 13.7089167,15.0623922 L17.3971389,15.0623922 L17.1556389,15.8972941 L16.2118056,15.8972941 C14.9576389,15.8972941 13.9931944,17.0118039 14.16275,18.2639608 L16.08075,32.589451 Z" id="Fill-74" fill="#B8DAF2"></path>
                                        <path d="M32.2211944,17.4334118 L30.5446944,29.8177255 C30.2631389,31.8883137 26.9533056,33.3322353 24.8836389,33.3322353 L25.0228611,33.4283137 C25.04775,33.2906667 25.0683611,33.1530196 25.0850833,33.0153725 C26.6538611,32.5851765 27.8668056,31.2455686 28.0985833,29.5506667 L30.0648056,15.0624314 L30.16825,15.0624314 C31.4224167,15.0624314 32.3911389,16.1769412 32.2211944,17.4334118" id="Fill-76" fill="#FFFFFF"></path>
                                        <path d="M28.4006722,9.21882353 L28.4006722,15.0623529 C28.3015056,15.0458824 28.1976722,15.0623529 28.0942278,15.0623529 L27.1546722,15.0623529 L27.1546722,8.78470588 C27.1546722,7.42392157 26.7945611,6.14666667 26.16145,5.04470588 C26.7902833,5.40784314 27.3615611,5.8627451 27.8500056,6.38862745 C28.2062278,7.26117647 28.4006722,8.21686275 28.4006722,9.21882353" id="Fill-78" fill="#FFFFFF"></path>
                                        <path d="M15.1047556,14.2781176 L28.4506444,14.2781176 L28.4506444,10.0538039 C28.4506444,9.17341176 28.2853667,8.32203922 27.9587,7.52203922 C27.3858667,6.10203922 26.3420889,4.91419608 25.0183111,4.17380392 C24.0332556,3.61772549 22.9136444,3.32439216 21.7777,3.32439216 C18.0980333,3.32439216 15.1047556,6.34321569 15.1047556,10.0538039 L15.1047556,14.2781176 Z M29.2284222,15.8467451 L14.3269778,15.8467451 C13.8976444,15.8467451 13.5492,15.4953725 13.5492,15.0624314 L13.5492,10.0538039 C13.5492,5.4785098 17.2405333,1.75576471 21.7777,1.75576471 C23.1792556,1.75576471 24.5613667,2.11811765 25.7750889,2.80360784 C27.4060889,3.71537255 28.6933111,5.18086275 29.3983667,6.92792157 C29.8012556,7.91498039 30.0062,8.96752941 30.0062,10.0538039 L30.0062,15.0624314 C30.0062,15.4953725 29.6581444,15.8467451 29.2284222,15.8467451 L29.2284222,15.8467451 Z" id="Fill-80" fill="#2D3666"></path>
                                        <path d="M13.3866833,15.8467451 C13.0079056,15.8467451 12.6625722,16.0051765 12.4132944,16.2926275 C12.1640167,16.5804706 12.0555167,16.9471373 12.1064611,17.3255686 L13.4127389,26.9859608 C13.8490722,30.2118431 16.6125167,32.644 19.8406833,32.644 L23.7151833,32.644 C26.9429611,32.644 29.7064056,30.2118431 30.1427389,26.9863529 L31.4490167,17.3255686 C31.4999611,16.9471373 31.3910722,16.5804706 31.1421833,16.2926275 C30.8932944,16.0051765 30.5475722,15.8467451 30.1687944,15.8467451 L13.3866833,15.8467451 Z M23.7151833,34.2126275 L19.8406833,34.2126275 C15.8386278,34.2126275 12.4125167,31.1973333 11.8715722,27.1981176 L10.5652944,17.5373333 C10.4540722,16.7157647 10.7006278,15.8859608 11.2411833,15.2612549 C11.7825167,14.636549 12.5641833,14.2781176 13.3866833,14.2781176 L30.1687944,14.2781176 C30.9916833,14.2781176 31.7729611,14.636549 32.3139056,15.2612549 C32.8552389,15.8859608 33.1014056,16.7157647 32.9901833,17.5377255 L31.6839056,27.1985098 C31.1429611,31.1973333 27.7172389,34.2126275 23.7151833,34.2126275 L23.7151833,34.2126275 Z" id="Fill-82" fill="#2D3666"></path>
                                        <path d="M18.0525722,19.9228235 C17.2864611,19.9228235 16.6634611,20.5510588 16.6634611,21.3236078 L16.6634611,24.6628235 C16.6634611,25.4349804 17.2864611,26.0636078 18.0525722,26.0636078 L25.5029056,26.0636078 C26.2690167,26.0636078 26.8920167,25.4349804 26.8920167,24.6628235 L26.8920167,21.3236078 C26.8920167,20.5510588 26.2690167,19.9228235 25.5029056,19.9228235 L18.0525722,19.9228235 Z M25.5029056,27.4361569 L18.0525722,27.4361569 C16.5362944,27.4361569 15.30235,26.1922353 15.30235,24.6628235 L15.30235,21.3236078 C15.30235,19.7941961 16.5362944,18.5502745 18.0525722,18.5502745 L25.5029056,18.5502745 C27.0195722,18.5502745 28.2531278,19.7941961 28.2531278,21.3236078 L28.2531278,24.6628235 C28.2531278,26.1922353 27.0195722,27.4361569 25.5029056,27.4361569 L25.5029056,27.4361569 Z" id="Fill-84" fill="#2D3666"></path>
                                        <path d="M34.6110722,8.14901961 C34.4430722,8.14901961 34.2952944,8.25647059 34.2424056,8.41686275 L34.0121833,9.11333333 L33.3215167,9.3454902 C33.1620722,9.39882353 33.0555167,9.54823529 33.0555167,9.71764706 C33.0555167,9.88705882 33.1620722,10.0360784 33.3215167,10.0898039 L34.0121833,10.3219608 L34.2424056,11.0180392 C34.2952944,11.1788235 34.4430722,11.2862745 34.6110722,11.2862745 C34.7790722,11.2862745 34.92685,11.1788235 34.9801278,11.0180392 L35.21035,10.3215686 L35.9006278,10.0898039 C36.0600722,10.0360784 36.1666278,9.88705882 36.1666278,9.71764706 C36.1666278,9.54823529 36.0600722,9.39882353 35.9006278,9.3454902 L35.21035,9.11333333 L34.9801278,8.41686275 C34.92685,8.25647059 34.7790722,8.14901961 34.6110722,8.14901961 M34.5764611,9.71764706 C34.5889056,9.70666667 34.6001833,9.69490196 34.6110722,9.6827451 C34.6219611,9.69490196 34.6332389,9.70666667 34.6456833,9.71764706 C34.6332389,9.72823529 34.6219611,9.74 34.6110722,9.75254902 C34.6001833,9.74 34.5889056,9.72823529 34.5764611,9.71764706" id="Fill-88" fill="#9AE0E6"></path>
                                        <path d="M7.7777,8.21254902 L7.75786667,8.27294118 C7.71897778,8.38980392 7.62758889,8.48196078 7.51208889,8.52078431 L7.4522,8.54117647 L7.51208889,8.56117647 C7.62758889,8.6 7.71897778,8.69215686 7.75786667,8.80941176 L7.7777,8.86941176 L7.79792222,8.80941176 C7.83642222,8.69215686 7.92781111,8.6 8.0437,8.56117647 L8.10358889,8.54117647 L8.0437,8.52078431 C7.92781111,8.48196078 7.83642222,8.38980392 7.79792222,8.27294118 L7.7777,8.21254902" id="Fill-90" fill="#9AE0E6"></path>
                                        <path d="M7.77785556,6.58035294 C7.60985556,6.58035294 7.46168889,6.68780392 7.4088,6.84819608 L7.08135556,7.83878431 L6.09941111,8.16898039 C5.93957778,8.22270588 5.83341111,8.37172549 5.83341111,8.54113725 C5.83341111,8.71054902 5.93957778,8.85956863 6.09941111,8.91290196 L7.08135556,9.24309804 L7.4088,10.2336863 C7.46168889,10.3944706 7.60985556,10.5019216 7.77785556,10.5019216 C7.94585556,10.5019216 8.09363333,10.3944706 8.14652222,10.2336863 L8.47396667,9.2434902 L9.4563,8.91290196 C9.61535556,8.85956863 9.7223,8.71054902 9.7223,8.54113725 C9.7223,8.37172549 9.61535556,8.22270588 9.4563,8.16898039 L8.47396667,7.83878431 L8.14652222,6.84819608 C8.09363333,6.68780392 7.94585556,6.58035294 7.77785556,6.58035294 M7.75763333,8.27290196 L7.77785556,8.2125098 L7.79768889,8.27290196 C7.83618889,8.38976471 7.92757778,8.48192157 8.04346667,8.52113725 L8.10335556,8.54113725 L8.04346667,8.56113725 C7.92757778,8.60035294 7.83618889,8.69211765 7.79768889,8.80937255 L7.77785556,8.86976471 L7.75763333,8.80937255 C7.71913333,8.69211765 7.62774444,8.60035294 7.51185556,8.56113725 L7.45196667,8.54113725 L7.51185556,8.52113725 C7.62774444,8.48192157 7.71913333,8.38976471 7.75763333,8.27290196" id="Fill-92" fill="#9AE0E6"></path>
                                        <path d="M38.8889667,3.83513725 C38.4592444,3.83513725 38.1111889,4.1865098 38.1111889,4.61945098 C38.1111889,5.05278431 38.4592444,5.40376471 38.8889667,5.40376471 C39.3183,5.40376471 39.6667444,5.05278431 39.6667444,4.61945098 C39.6667444,4.1865098 39.3183,3.83513725 38.8889667,3.83513725" id="Fill-94" fill="#9AE0E6"></path>
                                        <path d="M41.2221444,17.1686275 C40.7928111,17.1686275 40.4443667,17.5196078 40.4443667,17.9529412 C40.4443667,18.3858824 40.7928111,18.7372549 41.2221444,18.7372549 C41.6518667,18.7372549 41.9999222,18.3858824 41.9999222,17.9529412 C41.9999222,17.5196078 41.6518667,17.1686275 41.2221444,17.1686275" id="Fill-96" fill="#9AE0E6"></path>
                                        <path d="M0.777777778,18.7370588 C0.348055556,18.7370588 0,19.0884314 0,19.5213725 C0,19.9547059 0.348055556,20.3056863 0.777777778,20.3056863 C1.20711111,20.3056863 1.55555556,19.9547059 1.55555556,19.5213725 C1.55555556,19.0884314 1.20711111,18.7370588 0.777777778,18.7370588" id="Fill-98" fill="#9AE0E6"></path>
                                        <path d="M3.88892778,1.48235294 C3.45920556,1.48235294 3.11115,1.83333333 3.11115,2.26666667 C3.11115,2.69960784 3.45920556,3.05098039 3.88892778,3.05098039 C4.31826111,3.05098039 4.66670556,2.69960784 4.66670556,2.26666667 C4.66670556,1.83333333 4.31826111,1.48235294 3.88892778,1.48235294" id="Fill-100" fill="#9AE0E6"></path>
                                        <path d="M13.9999611,38.3449804 C13.5706278,38.3449804 13.2221833,38.6963529 13.2221833,39.1292941 C13.2221833,39.5626275 13.5706278,39.9136078 13.9999611,39.9136078 C14.4296833,39.9136078 14.7777389,39.5626275 14.7777389,39.1292941 C14.7777389,38.6963529 14.4296833,38.3449804 13.9999611,38.3449804" id="Fill-102" fill="#9AE0E6"></path>
                                        <path d="M6.61111111,34.8156078 C6.44311111,34.8156078 6.29533333,34.9230588 6.24244444,35.0838431 L6.01183333,35.7799216 L5.32155556,36.0120784 C5.16211111,36.0658039 5.05555556,36.2148235 5.05555556,36.3842353 C5.05555556,36.5536471 5.16211111,36.7026667 5.32155556,36.7563922 L6.01183333,36.988549 L6.24244444,37.6846275 C6.29533333,37.8454118 6.44311111,37.9528627 6.61111111,37.9528627 C6.77911111,37.9528627 6.92688889,37.8454118 6.97977778,37.6846275 L7.21038889,36.988549 L7.90066667,36.7563922 C8.06011111,36.7026667 8.16666667,36.5536471 8.16666667,36.3842353 C8.16666667,36.2148235 8.06011111,36.0658039 7.90066667,36.0120784 L7.21038889,35.7799216 L6.97977778,35.0838431 C6.92688889,34.9230588 6.77911111,34.8156078 6.61111111,34.8156078 M6.5765,36.3842353 C6.58894444,36.3732549 6.60022222,36.3618824 6.61111111,36.3493333 C6.622,36.3618824 6.63327778,36.3732549 6.64572222,36.3842353 C6.63327778,36.3952157 6.622,36.4065882 6.61111111,36.4191373 C6.60022222,36.4065882 6.58894444,36.3952157 6.5765,36.3842353" id="Fill-106" fill="#9AE0E6"></path>
                                        <path d="M35.7778167,34.8793333 L35.7579833,34.9397255 C35.7190944,35.0565882 35.6277056,35.1487451 35.5118167,35.1875686 L35.4519278,35.2075686 L35.5118167,35.2275686 C35.6277056,35.2667843 35.7190944,35.3589412 35.7579833,35.4758039 L35.7778167,35.5361961 L35.79765,35.4758039 C35.83615,35.3589412 35.9275389,35.2667843 36.0434278,35.2275686 L36.1033167,35.2075686 L36.0434278,35.1875686 C35.9275389,35.1487451 35.83615,35.0565882 35.79765,34.9397255 L35.7778167,34.8793333" id="Fill-108" fill="#9AE0E6"></path>
                                        <path d="M35.7778167,33.2469412 C35.6098167,33.2469412 35.46165,33.3543922 35.4087611,33.5151765 L35.0813167,34.5053725 L34.0993722,34.8355686 C33.9399278,34.8892941 33.8333722,35.0383137 33.8333722,35.2077255 C33.8333722,35.3771373 33.9399278,35.5261569 34.0993722,35.5798824 L35.0813167,35.9100784 L35.4087611,36.9002745 C35.46165,37.0610588 35.6098167,37.1685098 35.7778167,37.1685098 C35.9458167,37.1685098 36.0935944,37.0610588 36.1464833,36.9002745 L36.4739278,35.9100784 L37.4562611,35.5798824 C37.6153167,35.5261569 37.7222611,35.3771373 37.7222611,35.2077255 C37.7222611,35.0383137 37.6153167,34.8892941 37.4562611,34.8355686 L36.4739278,34.5053725 L36.1464833,33.5151765 C36.0935944,33.3543922 35.9458167,33.2469412 35.7778167,33.2469412 M35.7579833,34.9394902 L35.7778167,34.8794902 L35.79765,34.9394902 C35.83615,35.0563529 35.9275389,35.148902 36.0434278,35.1877255 L36.1033167,35.2077255 L36.0434278,35.2277255 C35.9275389,35.2669412 35.83615,35.359098 35.79765,35.4759608 L35.7778167,35.5363529 L35.7579833,35.4759608 C35.7190944,35.359098 35.6277056,35.2669412 35.5118167,35.2277255 L35.4519278,35.2077255 L35.5118167,35.1877255 C35.6277056,35.148902 35.7190944,35.0563529 35.7579833,34.9394902" id="Fill-110" fill="#9AE0E6"></path>
                                    </g>
                                </g>
                            </g>
                        </g>
                    </g>
                </g>
            </g>
        </g>
    </g>
</svg>
